HIERARCHY
ROOT Hips
{
  OFFSET -331.093 83.8371 -317.828
  CHANNELS 6 Xposition Yposition Zposition Zrotation Xrotation Yrotation
  JOINT LeftUpLeg
  {
    OFFSET 8.64259 1.95398 -2.38835
    CHANNELS 3 Zrotation Xrotation Yrotation
    JOINT LeftLeg
    {
      OFFSET 43.7702 0 0
      CHANNELS 3 Zrotation Xrotation Yrotation
      JOINT LeftFoot
      {
        OFFSET 40.6238 0 0
        CHANNELS 3 Zrotation Xrotation Yrotation
        JOINT LeftToeBase
        {
          OFFSET 12.7242 0 0
          CHANNELS 3 Zrotation Xrotation Yrotation
          End Site
          {
            OFFSET 0 0 0
          }
        }
      }
    }
  }
  JOINT RightUpLeg
  {
    OFFSET -8.2249 1.95398 -2.59336
    CHANNELS 3 Zrotation Xrotation Yrotation
    JOINT RightLeg
    {
      OFFSET 43.5653 0 0
      CHANNELS 3 Zrotation Xrotation Yrotation
      JOINT RightFoot
      {
        OFFSET 40.6238 0 0
        CHANNELS 3 Zrotation Xrotation Yrotation
        JOINT RightToeBase
        {
          OFFSET 12.7242 0 0
          CHANNELS 3 Zrotation Xrotation Yrotation
          End Site
          {
            OFFSET 0 0 0
          }
        }
      }
    }
  }
  JOINT Spine
  {
    OFFSET 0.165834 0.87714 6.61349
    CHANNELS 3 Zrotation Xrotation Yrotation
    JOINT Spine1
    {
      OFFSET 7.38963 1.71661e-005 0
      CHANNELS 3 Zrotation Xrotation Yrotation
      JOINT Spine2
      {
        OFFSET 11.9445 1.14441e-005 0
        CHANNELS 3 Zrotation Xrotation Yrotation
        JOINT Spine3
        {
          OFFSET 14.7254 4.19617e-005 0
          CHANNELS 3 Zrotation Xrotation Yrotation
          JOINT Spine4
          {
            OFFSET 10.9679 0 0
            CHANNELS 3 Zrotation Xrotation Yrotation
            JOINT RightShoulder
            {
              OFFSET 2.46616 -1.6653 3.69651
              CHANNELS 3 Zrotation Xrotation Yrotation
              JOINT RightArm
              {
                OFFSET 13.0012 0 0
                CHANNELS 3 Zrotation Xrotation Yrotation
                JOINT RightForeArm
                {
                  OFFSET 28.7848 1.62311e-005 0
                  CHANNELS 3 Zrotation Xrotation Yrotation
                  JOINT RightHand
                  {
                    OFFSET 26.5688 1.62095e-005 0
                    CHANNELS 3 Zrotation Xrotation Yrotation
                    End Site
                    {
                      OFFSET 0 0 0
                    }
                  }
                }
              }
            }
            JOINT LeftShoulder
            {
              OFFSET 2.38034 -1.29275 -3.7523
              CHANNELS 3 Zrotation Xrotation Yrotation
              JOINT LeftArm
              {
                OFFSET 16.3182 6.07031e-005 0
                CHANNELS 3 Zrotation Xrotation Yrotation
                JOINT LeftForeArm
                {
                  OFFSET 27.0901 0 0
                  CHANNELS 3 Zrotation Xrotation Yrotation
                  JOINT LeftHand
                  {
                    OFFSET 24.5451 1.51738e-005 0
                    CHANNELS 3 Zrotation Xrotation Yrotation
                    End Site
                    {
                      OFFSET 0 0 0
                    }
                  }
                }
              }
            }
            JOINT Neck
            {
              OFFSET 5.0226 -0.0266342 0
              CHANNELS 3 Zrotation Xrotation Yrotation
              JOINT Head
              {
                OFFSET 6.69364 2.86102e-005 0
                CHANNELS 3 Zrotation Xrotation Yrotation
                End Site
                {
                  OFFSET 0 0 0
                }
              }
            }
          }
        }
      }
    }
  }
}
MOTION
Frames:	13
Frame Time:	0.0416667
43.7759 97.8119 28.5745 169.807 -86.5931 169.774 -177.299 13.4679 89.2841 -23.5862 19.113 0.0782418 62.0115 3.02077 5.33802 29.0656 -0.380568 -2.72317 174.779 10.3166 85.1857 -44.8785 -2.41293 -5.89124 59.0924 0.262035 0.105556 37.7799 -1.57653 -7.12366 0.316488 7.55089 -89.8805 11.7718 0.685622 0.165675 0.100969 0.692251 0.135333 -22.4353 0.604129 0.364082 -2.42263 0.604135 0.364083 91.0108 -40.8993 -101.042 29.6442 -9.65536 4.41844 -21.9371 -11.4181 -61.2226 -10.8756 -0.667529 1.1382 -93.4914 -47.2806 73.2674 -24.4572 2.81658 9.06954 11.823 9.06458 -51.1408 14.0323 1.29847 5.24377 -5.661 -1.91058 2.92369 -0.122349 -2.2118 -2.95561 
44.8548 98.1579 30.1208 -175.969 -87.3985 -175.075 -177.268 12.7699 89.5376 -23.1256 17.7952 0.314516 63.3478 3.57295 4.36288 27.2822 -1.49371 -2.00854 173.893 13.64 85.2499 -45.0593 2.18748 -4.60881 58.2809 0.454867 0.253379 36.6448 -2.15197 -10.6346 0.22269 7.53437 -89.9436 11.8051 0.469405 0.06247 0.134262 0.471706 0.0417397 -22.4015 0.428931 0.200662 -2.38882 0.428929 0.200656 91.1917 -40.8686 -100.741 29.9862 -9.12069 4.33665 -19.598 -10.9889 -58.2173 -9.26686 -0.580738 1.17165 -93.391 -47.0567 73.3556 -22.8294 1.84369 7.5141 11.5223 6.54326 -55.2062 15.2279 1.3055 4.61137 -6.75905 -8.03748 1.96309 0.145345 -8.23484 -4.07203 
45.3842 98.5522 31.4204 -141.931 -87.3824 -139.981 -176.757 11.8119 90.3342 -22.0206 16.6794 0.276249 63.7939 3.70896 3.97559 27.3313 -1.41992 -1.8037 171.627 13.8519 85.3571 -36.077 5.27165 -2.72868 59.5973 -0.336752 -0.226553 36.7909 -2.2885 -11.2719 0.167889 7.52734 -90.0263 11.8193 0.32157 -0.0864626 0.148431 0.317457 -0.100538 -22.3871 0.332681 0.0141859 -2.3744 0.332688 0.0141791 91.7134 -40.4223 -99.9623 30.2902 -9.57693 3.87227 -19.5604 -11.9759 -56.3635 -9.75136 -0.610666 1.21502 -93.3804 -46.8797 73.3211 -22.5552 1.55889 7.12309 11.0555 5.47537 -56.6887 17.6974 1.63576 5.36954 -7.55932 -12.6546 1.95943 -0.141286 -12.856 -6.53165 
45.2442 98.6728 32.5564 -110.99 -86.1985 -108.649 -175.908 11.4892 91.0648 -21.5189 15.5812 -0.256692 64.5672 4.08278 4.06915 27.3378 -1.42469 -1.8544 170.646 12.913 85.409 -24.947 6.27469 -1.5181 56.0067 0.633226 0.545683 36.8466 -1.81394 -8.76446 0.14655 7.50006 -90.0082 11.8738 0.28764 -0.047168 0.202909 0.285287 -0.0597892 -22.3325 0.288507 0.0414641 -2.31985 0.288509 0.0414549 92.0115 -39.9315 -99.5712 30.9005 -10.0261 3.40565 -18.941 -12.7046 -55.1653 -9.43142 -0.597208 1.24997 -93.7255 -47.2412 72.9013 -22.2725 2.0968 8.2621 11.1187 5.64479 -56.4541 16.718 1.53139 5.25431 -7.52292 -16.6292 1.25943 -1.51205 -16.7078 -8.69144 
44.6616 98.8181 33.7335 -100.139 -85.1161 -97.9048 -175.813 10.5224 91.2015 -20.3809 14.8454 -0.158895 64.7391 4.48949 4.50692 27.6135 -1.18472 -1.63028 169.826 11.5697 85.4538 -21.4051 6.91312 -0.846352 55.5604 0.733063 0.617221 36.7643 -1.4009 -6.64135 0.0161272 7.46534 -89.8817 11.9431 0.0878227 0.226395 0.272112 0.0977005 0.2223 -22.2629 0.015726 0.242321 -2.25025 0.0157238 0.242322 91.688 -40.3019 -100.036 30.6878 -11.4671 2.40547 -16.0372 -12.4951 -52.4334 -11.6086 -0.717296 1.48221 -93.4946 -47.3083 73.2708 -23.1793 1.73727 9.81613 12.7271 8.39421 -53.8771 14.0939 1.23825 4.7941 -7.78347 -21.0317 -0.164014 -3.9711 -20.8122 -10.935 
44.006 99.0299 34.7489 -94.6072 -84.4866 -91.6713 -175.262 10.0133 92.3437 -19.8666 14.5177 -0.177928 65.1377 4.55728 3.96455 27.9522 -0.934328 -1.58129 169.491 9.47378 86.2562 -18.1171 6.04124 -0.361392 55.0989 0.976829 0.783965 37.5499 -1.54955 -7.07734 -0.0460276 7.44623 -89.9219 11.9814 -0.0546348 0.16172 0.310474 -0.0474622 0.163961 -22.2246 -0.100716 0.137825 -2.21197 -0.100712 0.137822 91.6265 -40.3168 -100.139 30.2132 -12.5341 1.78989 -15.1784 -13.74 -50.0511 -10.6298 -0.678242 1.61376 -93.7278 -47.2762 72.9081 -25.0978 2.31813 10.8636 10.1099 9.04069 -47.6853 13.3396 1.02105 3.67199 -9.20005 -24.918 -2.603 -4.68989 -24.492 -12.8749 
43.438 99.0595 35.4565 -88.6702 -83.7031 -85.8313 -174.913 9.60698 92.678 -18.8776 14.2932 -0.407597 65.1013 4.7408 4.17651 28.9186 -0.553089 -3.05535 169.85 8.40124 86.8074 -15.9442 6.80784 -0.557403 55.8934 0.661308 0.568472 36.823 -1.34179 -6.31141 -0.0156299 7.40225 -89.9066 12.0695 0.0131038 0.184612 0.398568 0.0212172 0.183848 -22.1365 -0.0429897 0.180013 -2.12386 -0.0429862 0.180011 91.6665 -40.7388 -99.9633 29.4958 -12.4023 1.5838 -14.2431 -13.4742 -48.4461 -9.97802 -0.645659 1.70762 -93.9934 -47.4214 72.5485 -26.3605 3.5678 11.7121 9.43015 11.3121 -43.1658 12.3021 0.880961 3.1643 -9.49016 -25.7174 -4.31876 -3.71964 -25.2901 -12.5324 
43.0478 99.0608 35.9143 -85.7943 -83.748 -83.385 -174.777 9.27633 92.5718 -18.1508 14.8195 -0.657495 64.7058 4.73626 4.61458 29.9969 0.0800086 -3.58987 169.808 7.81621 86.7305 -14.8818 7.27515 -0.661215 56.4531 0.433448 0.414314 36.6207 -1.28601 -6.0927 -0.00646135 7.35193 -89.8973 12.1699 0.0358071 0.201042 0.498956 0.0446249 0.19927 -22.0361 -0.0262601 0.202516 -2.02344 -0.026272 0.202507 91.6598 -40.8521 -99.9454 29.2922 -12.0404 1.8234 -13.2278 -13.4243 -46.6657 -10.0797 -0.679835 2.13163 -93.8202 -47.4768 72.8266 -27.0352 3.21987 12.337 9.53737 13.2288 -40.8029 11.4118 0.900033 3.81544 -7.29057 -20.1484 -3.04474 -2.92497 -19.7799 -10.2453 
42.7097 99.0609 36.2194 -84.8826 -84.4665 -82.6032 -174.911 9.14513 92.6064 -18.207 15.2019 -0.498657 65.0702 4.71042 4.16618 29.622 -0.0706685 -3.09296 169.743 7.47159 86.7533 -14.9915 8.043 -0.620811 57.2488 0.0216365 0.133717 35.9489 -1.13082 -5.51165 0.0687455 7.30996 -89.9678 12.2539 0.151947 0.0472036 0.583009 0.153884 0.0404576 -21.9522 0.130733 0.0906843 -1.93956 0.130742 0.0906871 91.838 -40.6622 -99.6878 29.176 -12.1154 2.8156 -12.1412 -12.3614 -45.7895 -9.51308 -0.650353 2.27353 -93.6377 -47.2503 73.0371 -27.1924 2.63062 12.5348 9.46012 13.3237 -40.2803 11.5291 0.908719 3.81271 -3.95938 -9.32365 -2.43735 -2.36052 -8.99565 -3.30394 
42.496 99.0317 36.4817 -85.7068 -85.7514 -83.9377 -174.957 8.67384 92.3078 -17.7265 16.6001 -0.613374 64.5827 4.77507 4.73543 30.0504 0.0924332 -3.7013 169.26 7.30991 86.2623 -15.7526 8.59203 -0.491924 58.0271 -0.195586 -0.0244814 36.2729 -1.20434 -5.79004 0.166599 7.31115 -90.0278 12.2517 0.318007 -0.0910482 0.580817 0.313691 -0.104957 -21.9547 0.330666 0.00873229 -1.94202 0.330667 0.00873136 92.1301 -40.3224 -99.2692 29.2606 -11.7374 3.68124 -11.5229 -12.0671 -44.7546 -8.42999 -0.669129 3.73969 -93.8961 -47.5022 72.7195 -26.2023 2.49807 11.6715 9.02862 12.2916 -40.5832 11.7176 0.887628 3.53292 -1.43033 2.84438 -1.67617 -3.62913 2.99429 2.81807 
42.289 98.9989 36.6257 -80.5403 -87.254 -79.1104 -175.069 8.51687 92.1009 -16.9461 18.2619 -0.71359 63.9296 5.04824 6.05837 30.4286 0.0710508 -4.95467 169.008 6.93134 86.0705 -15.5678 9.83445 -0.404835 58.5319 -0.407588 -0.164208 36.1564 -1.19991 -5.81042 0.194374 7.28085 -90.0074 12.3123 0.38281 -0.0581156 0.641382 0.379885 -0.0749133 -21.8942 0.382569 0.0596269 -1.88157 0.382579 0.0596232 92.0589 -40.545 -99.3374 29.3864 -11.6637 4.17306 -12.4116 -13.659 -44.3527 -8.24564 -0.661202 3.75974 -93.4026 -46.9976 73.321 -25.6333 1.89338 11.2238 8.7869 10.4107 -42.4315 11.7194 0.900294 3.63983 0.129576 10.9358 -1.24636 -5.7191 10.8371 5.24422 
42.0164 98.9239 36.6961 -78.8252 -88.1077 -77.8139 -175.206 8.38114 91.9334 -17.1006 18.5326 -0.608348 64.8359 5.38619 5.12606 29.1659 -0.196252 -2.1478 168.725 6.44538 85.8577 -15.2912 10.6888 -0.340879 59.5745 -0.741832 -0.382871 35.7564 -1.12023 -5.52296 0.245751 7.28198 -89.9541 12.31 0.510226 0.034084 0.639161 0.511233 0.011587 -21.8967 0.47639 0.185858 -1.88408 0.476399 0.185864 92.0545 -40.1082 -99.4528 29.9341 -11.7961 4.06795 -14.0197 -15.4258 -43.9221 -8.60199 -0.606566 2.21065 -93.4174 -47.0333 73.3088 -25.2822 1.32477 11.0804 9.68355 10.1706 -44.6109 12.6731 1.07175 4.40257 0.317839 12.9143 -0.104321 -5.39933 12.6783 4.04964 
41.7473 98.6413 36.7426 -89.1876 -87.6655 -88.691 -175.505 8.1293 91.4208 -18.1094 17.4429 -0.274952 66.3916 6.84442 5.39748 31.7279 2.36898 0.687171 168.863 6.43624 85.7052 -16.0494 10.6232 -0.690434 61.4441 -1.3449 -0.761334 35.5463 -1.106 -5.52474 0.348922 7.31433 -89.8795 12.2449 0.750601 0.156365 0.574154 0.756767 0.123165 -21.9624 0.668896 0.374726 -1.94973 0.668909 0.37473 92.073 -39.6352 -99.5383 29.9075 -11.0975 3.34803 -12.4627 -14.0211 -43.1312 -7.89728 -0.524813 1.58905 -92.9943 -46.8912 73.9126 -25.7092 2.04031 11.2139 10.8241 10.873 -46.0755 13.2527 1.02145 3.7212 -0.0899266 9.06223 0.845516 -4.63819 8.83061 1.05333 
